<svg xmlns="http://www.w3.org/2000/svg" xmlns:xlink="http://www.w3.org/1999/xlink" width="103" height="103" viewBox="0 0 103 103">
  <defs>
    <filter id="Ellipse_222" x="0" y="0" width="103" height="103" filterUnits="userSpaceOnUse">
      <feOffset dy="3" input="SourceAlpha"/>
      <feGaussianBlur stdDeviation="3" result="blur"/>
      <feFlood flood-opacity="0.161"/>
      <feComposite operator="in" in2="blur"/>
      <feComposite in="SourceGraphic"/>
    </filter>
  </defs>
  <g id="missionIcon" transform="translate(-686.585 -839)">
    <g transform="matrix(1, 0, 0, 1, 686.58, 839)" filter="url(#Ellipse_222)">
      <circle id="Ellipse_222-2" data-name="Ellipse 222" cx="42.5" cy="42.5" r="42.5" transform="translate(9 6)" fill="#fff"/>
    </g>
    <g id="Group_20747" data-name="Group 20747" transform="translate(707.472 856.616)">
      <path id="Path_7222" data-name="Path 7222" d="M378.165,392.141a29.963,29.963,0,0,1,9.587,1.4,1.47,1.47,0,0,1,1.165,1.643,1.394,1.394,0,0,1-1.281,1.283,4.31,4.31,0,0,1-1.2-.184,49.856,49.856,0,0,0-6.525-1.007c-10.609-.276-18.943,4.082-24.556,13.054a27.133,27.133,0,0,0,2.224,31.725,26.265,26.265,0,0,0,16.557,9.582c9.922,1.527,18.4-1.438,25.151-8.918a26.506,26.506,0,0,0,6.777-20.377,45.268,45.268,0,0,0-.953-5.22c-.046-.24-.136-.473-.174-.714a1.532,1.532,0,0,1,1.186-1.924,1.465,1.465,0,0,1,1.747,1.226,46.721,46.721,0,0,1,1.116,5.439,30.436,30.436,0,0,1-24.6,33.385A30.205,30.205,0,0,1,349.141,429.6c-2.649-11.556.611-21.569,9.3-29.64A29.062,29.062,0,0,1,378.165,392.141Z" transform="translate(-348.245 -392.141)" fill="#6a6a6a"/>
      <path id="Path_7223" data-name="Path 7223" d="M435.177,495.727a18.193,18.193,0,0,0,17.375-12.852,17.059,17.059,0,0,0,.726-6.381,1.651,1.651,0,0,1,1.474-1.986c.774-.075,1.477.594,1.571,1.654a18.876,18.876,0,0,1-.96,7.821,20.947,20.947,0,0,1-13.329,13.649,21.259,21.259,0,0,1-24.953-8.921,21.19,21.19,0,0,1,5.051-27.966,21.271,21.271,0,0,1,13.152-4.462,5.966,5.966,0,0,1,1.379.127A1.636,1.636,0,0,1,438,458.195a1.583,1.583,0,0,1-1.787,1.212,17.893,17.893,0,0,0-7.312,1.032A18.249,18.249,0,0,0,417,476.087a17.765,17.765,0,0,0,6.19,15.169A17.582,17.582,0,0,0,435.177,495.727Z" transform="translate(-404.537 -447.161)" fill="#6a6a6a"/>
      <path id="Path_7224" data-name="Path 7224" d="M575.511,419.71c1.525,0,2.938,0,4.351,0a1.54,1.54,0,0,1,1.3,2.575c-3.027,3.03-6.04,6.074-9.109,9.06a2.577,2.577,0,0,1-1.565.533c-1.415.072-2.838-.016-4.254.049a2.084,2.084,0,0,0-1.26.527c-3.1,3.036-6.159,6.109-9.234,9.169a4.181,4.181,0,0,1-.68.583,1.479,1.479,0,0,1-1.936-.2,1.445,1.445,0,0,1-.028-1.947,11.415,11.415,0,0,1,.9-.951c2.929-2.935,5.852-5.877,8.8-8.793a1.788,1.788,0,0,0,.581-1.44c-.035-1.391-.08-2.788.021-4.172a2.953,2.953,0,0,1,.695-1.732c2.831-2.916,5.733-5.763,8.6-8.643a1.634,1.634,0,0,1,1.91-.521,1.584,1.584,0,0,1,.914,1.677C575.5,416.846,575.511,418.207,575.511,419.71Zm.81,3.055c-.811,0-1.38.007-1.949,0-1.338-.02-1.873-.547-1.909-1.89-.016-.582,0-1.165,0-1.863a3.15,3.15,0,0,0-.414.263q-2.669,2.653-5.329,5.315c-.112.112-.267.26-.269.393-.021,1.266-.012,2.532-.012,3.846,1.172,0,2.236.037,3.294-.021a1.774,1.774,0,0,0,1.056-.441c1.666-1.611,3.294-3.262,4.931-4.9C575.882,423.3,576.024,423.11,576.322,422.765Z" transform="translate(-523.65 -410.614)" fill="#f26522"/>
      <path id="Path_7225" data-name="Path 7225" d="M490.2,541.468a9.074,9.074,0,0,0,9.1-8.684c.028-.681.1-1.387.792-1.665a2.221,2.221,0,0,1,1.452-.037,1.418,1.418,0,0,1,.821,1.552A12.135,12.135,0,0,1,485.439,543.5a11.7,11.7,0,0,1-7.361-11.123,12.134,12.134,0,0,1,11.513-12.164,2.014,2.014,0,0,1,1.254.2,2.429,2.429,0,0,1,.836,1.367,1.239,1.239,0,0,1-.968,1.345,4.088,4.088,0,0,1-.961.154,9.1,9.1,0,0,0,.447,18.19Z" transform="translate(-459.611 -501.991)" fill="#6a6a6a"/>
    </g>
  </g>
</svg>
