<svg xmlns="http://www.w3.org/2000/svg" xmlns:xlink="http://www.w3.org/1999/xlink" width="103" height="103" viewBox="0 0 103 103">
  <defs>
    <filter id="Ellipse_223" x="0" y="0" width="103" height="103" filterUnits="userSpaceOnUse">
      <feOffset dy="3" input="SourceAlpha"/>
      <feGaussianBlur stdDeviation="3" result="blur"/>
      <feFlood flood-opacity="0.161"/>
      <feComposite operator="in" in2="blur"/>
      <feComposite in="SourceGraphic"/>
    </filter>
  </defs>
  <g id="visionIcon" transform="translate(-875.935 -839)">
    <g transform="matrix(1, 0, 0, 1, 875.93, 839)" filter="url(#Ellipse_223)">
      <circle id="Ellipse_223-2" data-name="Ellipse 223" cx="42.5" cy="42.5" r="42.5" transform="translate(9 6)" fill="#fff"/>
    </g>
    <g id="Group_20748" data-name="Group 20748" transform="translate(900.754 859.384)">
      <path id="Path_7226" data-name="Path 7226" d="M1428.452,519.636a26.975,26.975,0,0,1-8.522-1.3,52.506,52.506,0,0,1-16.37-8.436,19.26,19.26,0,0,1-1.937-1.8,1.479,1.479,0,0,1,.015-2.373,23.785,23.785,0,0,1,2.693-2.38,52.123,52.123,0,0,1,18.392-8.561,21.975,21.975,0,0,1,11.876.65,51.257,51.257,0,0,1,16.888,8.679,17.862,17.862,0,0,1,1.8,1.724,1.343,1.343,0,0,1-.028,2.182,52.245,52.245,0,0,1-5.151,4.111,48.6,48.6,0,0,1-14.6,6.57C1431.529,519.21,1429.48,519.45,1428.452,519.636Zm-11.127-12.689a10.114,10.114,0,1,0,10.108-9.867A9.956,9.956,0,0,0,1417.326,506.946Zm-.681,7.026a12.179,12.179,0,0,1-2.2-7.021,12.911,12.911,0,0,1,2.09-7.074,44.16,44.16,0,0,0-12.044,7.027C1406.909,509.2,1414.153,513.423,1416.644,513.972Zm33.663-6.983c-1.819-2.032-9.985-6.819-12.022-7.074,2.859,4.672,2.852,9.356-.1,14.181A47.176,47.176,0,0,0,1450.307,506.989Z" transform="translate(-1401.036 -478.546)" fill="#6a6a6a"/>
      <path id="Path_7227" data-name="Path 7227" d="M1608,753.815c0,1.077.009,2.155,0,3.232-.011,1.03-.581,1.654-1.47,1.64a1.438,1.438,0,0,1-1.415-1.622q-.017-3.268,0-6.537a1.449,1.449,0,1,1,2.883-.019C1608.015,751.612,1608,752.714,1608,753.815Z" transform="translate(-1579.958 -701.843)" fill="#6a6a6a"/>
      <path id="Path_7228" data-name="Path 7228" d="M1604.609,371.72c0,1.1.008,2.2,0,3.306a1.447,1.447,0,1,1-2.878.01q-.022-3.269,0-6.538c.007-1.036.588-1.658,1.472-1.64s1.4.656,1.408,1.7S1604.609,370.667,1604.609,371.72Z" transform="translate(-1576.987 -366.858)" fill="#6a6a6a"/>
      <path id="Path_7229" data-name="Path 7229" d="M1737.134,725.622a5.2,5.2,0,0,1-1.039,1.157,1.294,1.294,0,0,1-1.61-.295q-1.892-1.84-3.788-3.674c-.386-.374-.784-.737-1.152-1.128a1.417,1.417,0,0,1-.062-2.09,1.387,1.387,0,0,1,2.03.035q2.5,2.374,4.939,4.8A5.745,5.745,0,0,1,1737.134,725.622Z" transform="translate(-1688.629 -675.753)" fill="#6a6a6a"/>
      <path id="Path_7230" data-name="Path 7230" d="M1435.765,725.623a5.76,5.76,0,0,1,.682-1.188c1.625-1.621,3.276-3.217,4.936-4.8a1.407,1.407,0,0,1,2.035-.009,1.384,1.384,0,0,1-.039,2.03c-1.646,1.636-3.316,3.247-4.982,4.862a1.271,1.271,0,0,1-1.611.277A5.416,5.416,0,0,1,1435.765,725.623Z" transform="translate(-1431.485 -675.774)" fill="#6a6a6a"/>
      <path id="Path_7231" data-name="Path 7231" d="M1438.38,411.421a6.655,6.655,0,0,1,1.183.693c1.6,1.509,3.172,3.045,4.745,4.58a1.491,1.491,0,0,1,.262,2.2,1.439,1.439,0,0,1-2.191-.093c-1.629-1.548-3.229-3.125-4.841-4.69a1.3,1.3,0,0,1-.328-1.662A5.2,5.2,0,0,1,1438.38,411.421Z" transform="translate(-1432.596 -405.929)" fill="#6a6a6a"/>
      <path id="Path_7232" data-name="Path 7232" d="M1737.132,414.093a6.31,6.31,0,0,1-.692,1.141q-2.409,2.412-4.868,4.773a1.448,1.448,0,0,1-2.15.035,1.411,1.411,0,0,1,.159-2.083c1.6-1.578,3.218-3.139,4.824-4.712a1.332,1.332,0,0,1,1.663-.351A5.291,5.291,0,0,1,1737.132,414.093Z" transform="translate(-1688.615 -407.076)" fill="#6a6a6a"/>
      <path id="Path_7233" data-name="Path 7233" d="M1584.093,561.6a5.076,5.076,0,0,1-10.149-.013,5.075,5.075,0,0,1,10.149.013Zm-5.071-2.124a2.1,2.1,0,1,0,2.2,2.078A2.134,2.134,0,0,0,1579.022,559.478Z" transform="translate(-1552.636 -533.201)" fill="#f4741e"/>
    </g>
  </g>
</svg>
